<?xml version="1.0" encoding="UTF-8"?>
<!--
  Icon: card-jack-diamonds
  Set: Game Icons
  Author: GameIcons (https://github.com/game-icons/icons)
  License: CC BY 3.0 (https://github.com/game-icons/icons/blob/master/license.txt)
  Source: https://iconify.design
-->
<svg xmlns="http://www.w3.org/2000/svg"
     xmlns:xlink="http://www.w3.org/1999/xlink"
     viewBox="0 0 512 512"
     width="512"
     height="512">
  <title>Jack of Diamonds Playing Card</title>
  <metadata>
    <rdf:RDF xmlns:rdf="http://www.w3.org/1999/02/22-rdf-syntax-ns#"
             xmlns:dc="http://purl.org/dc/elements/1.1/"
             xmlns:cc="http://creativecommons.org/ns#">
      <cc:Work rdf:about="">
        <dc:title>Jack of Diamonds Playing Card</dc:title>
        <dc:description>A stylized representation of the Jack of Diamonds playing card, commonly used in card games and illustrations. This icon can be used to represent a specific card or as a design element in various contexts.</dc:description>
        <dc:creator>
          <cc:Agent>
            <dc:title>GameIcons</dc:title>
          </cc:Agent>
        </dc:creator>
        <dc:source>https://github.com/game-icons/icons</dc:source>
        <dc:rights>
          <cc:Agent>
            <dc:title>GameIcons</dc:title>
          </cc:Agent>
        </dc:rights>
        <cc:license rdf:resource="https://github.com/game-icons/icons/blob/master/license.txt"/>
        <dc:format>image/svg+xml</dc:format>
        <dc:type rdf:resource="http://purl.org/dc/dcmitype/StillImage"/>
        <dc:subject>
          <rdf:Bag>
            <rdf:li>jack</rdf:li>
            <rdf:li>diamonds</rdf:li>
            <rdf:li>playing-card</rdf:li>
            <rdf:li>card-game</rdf:li>
            <rdf:li>suit</rdf:li>
            <rdf:li>diamond-suit</rdf:li>
            <rdf:li>card-icon</rdf:li>
            <rdf:li>game-symbol</rdf:li>
            <rdf:li>poker</rdf:li>
            <rdf:li>blackjack</rdf:li>
            <rdf:li>casino</rdf:li>
            <rdf:li>gamble</rdf:li>
            <rdf:li>luck</rdf:li>
            <rdf:li>chance</rdf:li>
            <rdf:li>fortune</rdf:li>
          </rdf:Bag>
        </dc:subject>
      </cc:Work>
      <cc:License rdf:about="https://github.com/game-icons/icons/blob/master/license.txt">
        <dc:title>CC BY 3.0 (CC-BY-3.0)</dc:title>
      </cc:License>
    </rdf:RDF>
  </metadata>
  <path fill="currentColor" d="M119.436 36c-16.126 0-29.2 17.237-29.2 38.5v363c0 21.263 13.074 38.5 29.2 38.5h275.298c16.126 0 29.198-17.237 29.198-38.5v-363c0-21.263-13.072-38.5-29.198-38.5zm26.884 3.717l47.393 58.27l-47.393 58.286l-47.375-58.287l47.375-58.27zm81.996 128.972h77.743v8.915h-11.055q-6.538 0-9.39 2.378q-2.735 2.377-2.735 6.895v113.998q0 13.195-6.418 23.893q-6.42 10.58-18.783 16.88q-12.362 6.182-27.934 6.182q-21.16 0-34.592-12.363q-13.433-12.481-13.433-30.432q0-13.314 6.775-21.277q6.776-7.965 16.643-7.965q8.084 0 13.314 5.23q5.23 5.112 5.23 13.077q0 6.893-4.279 11.648q-4.28 4.636-9.867 4.637q-2.139 0-5.943-1.19q-3.21-.95-4.28-.95q-2.021 0-3.21 1.665q-1.308 1.664-1.307 4.992q0 8.916 8.916 16.286q9.034 7.251 22.11 7.251q14.858 0 23.417-10.224q8.559-10.341 8.559-28.766V186.877q0-4.636-3.21-6.895q-3.09-2.378-10.698-2.378h-15.573zm137.346 183.834l47.393 58.27l-47.393 58.287l-47.375-58.287z"/>
</svg>